<?xml version="1.0" standalone="no"?>
<!DOCTYPE svg PUBLIC "-//W3C//DTD SVG 20010904//EN"
 "http://www.w3.org/TR/2001/REC-SVG-20010904/DTD/svg10.dtd">
<svg version="1.0" xmlns="http://www.w3.org/2000/svg"
 width="303.000000pt" height="303.000000pt" viewBox="0 0 303.000000 303.000000"
 preserveAspectRatio="xMidYMid meet">
<metadata>
Created by potrace 1.11, written by Peter Selinger 2001-2013
</metadata>
<g transform="translate(0.000000,303.000000) scale(0.100000,-0.100000)"
fill="#000000" stroke="none">
<path d="M2185 2694 c-16 -8 -44 -31 -60 -51 -31 -35 -31 -35 -61 -20 -44 22
-287 21 -326 -1 -16 -9 -28 -20 -28 -24 0 -4 -9 -8 -20 -8 -26 0 -70 -43 -70
-67 0 -10 -9 -27 -21 -36 -12 -11 -20 -28 -19 -45 3 -48 0 -62 -13 -62 -20 0
-55 -41 -59 -69 -2 -19 -12 -27 -38 -34 -19 -5 -37 -12 -40 -17 -3 -4 -30 -15
-60 -23 -31 -9 -77 -30 -102 -47 l-48 -32 -22 25 c-37 39 -62 47 -143 47 -93
0 -153 -27 -214 -96 -66 -75 -94 -144 -99 -244 -6 -125 18 -181 117 -279 l76
-76 1 -69 2 -70 -53 -66 c-45 -57 -85 -119 -85 -134 0 -14 35 -36 57 -36 26 0
73 -41 73 -64 0 -6 5 -17 11 -23 7 -7 9 -22 4 -40 -5 -15 -9 -32 -10 -38 -2
-5 -10 -32 -19 -58 -25 -75 -22 -89 29 -125 32 -23 57 -32 84 -32 38 0 38 0
45 -46 16 -120 8 -133 -102 -159 -78 -19 -99 -38 -66 -62 19 -15 80 -13 164 3
52 10 103 52 95 78 -9 28 -7 61 5 107 13 47 34 69 65 69 18 0 24 -6 27 -27 4
-34 33 -49 108 -56 108 -11 131 -18 141 -46 6 -14 10 -59 10 -101 0 -65 5 -83
32 -135 26 -48 42 -65 82 -87 58 -32 55 -31 76 -15 38 29 33 53 -25 116 -31
33 -58 72 -62 86 -4 15 -3 59 2 98 l9 72 44 7 c75 13 78 20 57 148 -19 119
-15 195 12 205 8 3 42 8 74 12 70 7 71 13 29 129 l-28 80 61 59 c55 55 64 60
105 60 42 0 45 2 65 42 12 23 28 42 36 43 8 0 30 9 48 20 38 23 58 25 65 6 3
-8 29 -16 62 -21 51 -6 60 -4 81 16 45 42 44 133 -1 182 -14 15 -30 27 -35 27
-6 0 -10 -22 -10 -48 0 -42 -3 -50 -27 -63 -57 -32 -70 -10 -64 104 2 21 -2
37 -8 37 -6 0 -11 12 -11 26 0 14 -11 40 -25 58 -14 18 -25 36 -25 39 0 4 15
7 34 7 19 0 37 4 40 9 3 4 21 11 39 14 22 3 52 22 86 55 41 40 51 55 51 83 1
19 7 45 15 59 8 14 14 38 15 53 l0 29 31 -26 c17 -14 41 -26 53 -26 13 0 31
-9 41 -20 10 -11 34 -23 53 -26 23 -5 50 -22 78 -50 48 -50 70 -55 86 -20 9
21 5 36 -25 100 -20 42 -42 76 -50 76 -7 0 -31 16 -52 35 -46 40 -98 52 -165
36 -59 -14 -71 -14 -69 2 5 36 -4 62 -30 88 -25 24 -37 29 -78 28 -26 0 -57
-4 -68 -9 -12 -5 2 -6 36 -3 52 5 58 3 90 -25 27 -24 34 -37 33 -68 0 -22 -7
-54 -17 -73 -9 -19 -14 -37 -11 -40 4 -3 9 -1 11 5 2 6 10 20 18 30 13 18 14
16 15 -22 0 -22 -7 -49 -15 -60 -8 -10 -15 -38 -15 -62 0 -37 -4 -45 -29 -60
-17 -9 -34 -27 -40 -38 -11 -25 -76 -45 -153 -49 -57 -2 -64 2 -86 46 -9 19
-32 42 -51 51 -22 11 -40 31 -51 57 -10 21 -28 44 -39 51 -12 6 -19 15 -16 20
3 5 -7 10 -22 12 -20 2 -29 9 -31 26 -2 13 -10 22 -21 22 -22 0 -41 19 -41 42
0 13 -8 18 -25 18 -17 0 -29 8 -35 23 -10 22 -10 22 -7 -3 1 -16 10 -26 26
-30 14 -3 26 -11 29 -18 4 -14 -62 12 -94 37 -16 13 -19 22 -13 33 12 22 -3
60 -41 99 -23 24 -30 41 -30 70 0 21 6 41 14 46 7 4 19 25 25 45 8 23 20 39
34 44 12 3 38 16 57 29 24 16 52 24 90 25 75 3 80 2 80 -16 0 -12 4 -14 13 -7
6 6 28 16 49 22 29 10 43 9 71 -3 55 -22 67 -61 43 -131 -5 -13 -2 -11 8 5 8
14 15 35 16 48 0 30 13 28 57 -12 21 -18 52 -41 70 -50 17 -8 35 -26 38 -38 4
-13 20 -35 36 -50 25 -24 29 -25 29 -8 0 10 -9 22 -20 25 -11 3 -20 14 -20 24
0 21 -32 52 -76 74 -33 17 -51 45 -37 57 4 4 31 10 59 13 42 5 58 1 93 -19 73
-41 124 -27 113 32 -5 29 -48 66 -113 100 -56 28 -101 30 -144 8z m142 -28
c52 -25 107 -80 100 -100 -6 -20 -44 -18 -87 4 -36 18 -52 21 -104 15 -33 -4
-66 -11 -73 -17 -14 -11 -63 0 -63 16 0 14 78 91 100 99 33 12 79 6 127 -17z
m-692 -335 c31 -46 27 -76 -12 -86 -27 -6 -82 11 -95 29 -14 20 -8 43 17 70
34 36 57 33 90 -13z m-207 -121 c10 -17 10 -20 -5 -20 -52 0 -146 -50 -129
-68 4 -3 17 5 31 18 18 17 40 25 80 28 52 4 56 3 90 -31 27 -27 35 -43 35 -71
0 -20 -2 -36 -5 -36 -2 0 -21 11 -41 25 -45 30 -92 32 -128 4 -37 -29 -37 -95
0 -132 29 -29 80 -43 119 -33 46 12 61 37 68 116 7 87 -7 131 -53 159 l-31 19
36 6 c45 9 55 2 55 -38 0 -37 15 -56 46 -56 31 0 48 26 47 71 -1 21 0 39 3 39
10 0 164 -104 164 -111 0 -4 -10 -11 -22 -15 -28 -8 -38 -22 -38 -52 0 -26 16
-34 73 -36 50 -1 67 -26 67 -96 l0 -45 -22 44 c-26 53 -69 81 -125 81 -44 0
-113 -26 -113 -43 0 -5 12 -1 28 9 40 27 125 24 157 -6 49 -46 71 -141 45
-191 -8 -15 -7 -19 3 -19 17 0 27 30 27 77 0 32 1 32 28 21 15 -7 28 -13 30
-13 1 -1 -9 -44 -22 -96 -14 -51 -23 -95 -21 -97 2 -2 17 4 34 12 38 20 52 20
45 1 -9 -22 -172 -163 -213 -184 -33 -17 -33 -17 -61 11 -25 24 -36 28 -88 28
-33 0 -78 -7 -101 -15 -40 -14 -44 -13 -72 7 -27 20 -33 21 -65 9 -29 -10 -45
-11 -80 -1 -24 7 -64 10 -89 8 -32 -4 -56 0 -80 12 l-35 18 33 21 c44 27 80
91 71 128 -15 65 -70 81 -142 43 -66 -35 -99 -74 -111 -131 l-6 -30 -62 55
c-89 81 -116 132 -121 231 -5 95 6 141 50 215 93 155 282 208 373 106 l30 -34
46 34 c43 32 106 60 139 63 8 0 21 -8 28 -19z m1163 -8 c15 -9 45 -30 68 -45
51 -34 99 -127 83 -161 -8 -19 -12 -17 -53 26 -28 29 -57 48 -79 53 -19 4 -44
15 -55 25 -11 9 -32 20 -48 24 -27 6 -50 22 -91 61 l-21 20 45 6 c85 11 125 9
151 -9z m-751 -62 c0 -5 -2 -10 -4 -10 -3 0 -8 5 -11 10 -3 6 -1 10 4 10 6 0
11 -4 11 -10z m-390 -161 c0 -12 -7 -19 -19 -19 -22 0 -34 23 -19 38 15 15 38
3 38 -19z m580 -34 c37 -33 33 -125 -5 -125 -17 0 -65 43 -65 58 0 7 -6 15
-14 18 -21 8 -27 33 -15 56 9 17 17 19 46 15 20 -4 43 -13 53 -22z m93 -92 c3
-5 8 -21 11 -38 l6 -30 -70 0 c-73 0 -88 13 -32 27 17 5 33 17 37 28 6 19 39
28 48 13z m22 -90 c6 9 15 17 19 17 10 0 7 -58 -4 -65 -19 -12 -11 -26 9 -15
13 7 22 7 26 0 14 -22 -8 -31 -59 -25 -48 6 -55 4 -87 -21 -19 -16 -28 -21
-20 -12 11 15 11 19 -5 24 -31 11 -64 46 -64 67 0 16 5 18 25 13 18 -5 27 -2
31 9 5 12 14 14 34 10 17 -4 31 -1 35 5 5 8 13 6 27 -7 19 -17 20 -17 33 0z
m6 -103 c10 0 26 -11 34 -24 14 -22 14 -27 -10 -75 -16 -31 -38 -57 -55 -66
-16 -8 -30 -15 -32 -15 -2 0 -3 39 -3 88 0 86 7 107 33 97 8 -3 22 -5 33 -5z
m206 -93 c-6 -66 -28 -89 -81 -81 -23 4 -48 13 -57 20 -8 8 -21 14 -28 14 -7
0 -11 6 -9 13 3 6 25 14 51 17 59 7 87 32 87 79 l0 36 21 -25 c15 -19 19 -36
16 -73z m-286 1 c0 -29 -5 -64 -10 -78 -5 -14 -12 -37 -15 -52 -7 -32 -46 -61
-70 -52 -22 8 -20 28 7 72 13 20 36 68 51 105 16 37 31 65 34 63 2 -3 4 -29 3
-58z m-947 -73 c18 -9 52 -15 85 -14 31 1 73 -4 94 -12 30 -11 43 -11 72 0 36
13 75 7 75 -11 0 -11 40 -8 133 11 52 11 62 10 90 -6 19 -11 32 -27 32 -39 0
-17 -8 -19 -80 -21 -44 -2 -94 -3 -112 -3 -21 0 -35 -6 -42 -18 -11 -21 -91
-54 -128 -54 -13 0 -20 -4 -17 -9 9 -16 73 -4 126 22 10 5 24 6 33 2 19 -7 93
15 116 34 18 15 45 17 53 5 3 -5 -17 -25 -44 -45 -53 -40 -132 -63 -180 -53
-17 3 -53 -3 -86 -14 -90 -31 -130 -27 -192 20 -29 22 -64 40 -78 40 -35 0
-84 27 -86 48 0 9 0 29 1 44 1 15 -3 36 -9 48 -6 11 -8 25 -5 30 10 16 117 12
149 -5z m-151 -124 c3 -11 -7 -37 -24 -63 -16 -23 -29 -54 -29 -68 0 -19 6
-13 24 26 22 48 58 90 43 51 -10 -27 -20 -87 -13 -87 3 0 11 20 17 45 11 43
13 45 46 45 34 0 35 -1 30 -32 -3 -18 -9 -63 -13 -100 -3 -37 -11 -72 -18 -77
-13 -10 -56 4 -56 19 0 5 -12 10 -28 10 -16 0 -32 8 -40 20 -8 14 -23 20 -46
20 -19 0 -38 5 -41 11 -7 11 32 76 72 118 12 14 23 29 23 33 0 6 40 48 46 48
1 0 4 -9 7 -19z m562 -1 c-3 -5 -15 -10 -26 -10 -10 0 -19 5 -19 10 0 6 12 10
26 10 14 0 23 -4 19 -10z m290 -163 c3 -17 14 -53 23 -79 8 -26 14 -49 11 -52
-2 -2 -33 -7 -68 -11 l-64 -7 8 58 c8 69 25 96 25 41 0 -20 4 -37 10 -37 5 0
8 20 5 48 -4 45 -4 46 7 15 6 -18 15 -33 19 -33 12 0 12 1 -7 45 -12 30 -13
39 -3 46 19 11 27 3 34 -34z m-830 -166 c9 -16 115 -52 180 -61 33 -5 83 -14
110 -21 56 -13 269 -15 358 -4 45 6 57 5 58 -6 1 -16 3 -28 18 -99 6 -28 11
-71 11 -94 0 -50 -3 -51 -115 -66 -65 -8 -283 13 -316 31 -11 5 -19 21 -20 37
-1 15 -2 34 -3 42 -2 8 -3 30 -4 48 -2 23 -7 32 -19 32 -10 1 -35 7 -57 15
-21 7 -34 9 -30 5 5 -5 27 -16 49 -24 l40 -14 -27 -7 c-16 -4 -35 -5 -43 -1
-8 3 -15 1 -15 -4 0 -6 20 -10 45 -10 41 0 45 -2 45 -25 0 -38 -46 -42 -220
-18 -24 3 -61 17 -82 31 -42 27 -49 56 -24 103 7 14 16 47 20 73 7 43 26 61
41 37z m170 -281 c9 -14 -22 -42 -41 -38 -9 2 -23 13 -32 26 -14 22 -14 22 26
22 23 0 44 -5 47 -10z m-28 -50 c24 0 24 -11 3 -90 -12 -45 -36 -36 -44 16
-10 74 -8 100 6 86 7 -7 22 -12 35 -12z m480 -52 c-3 -13 -9 -58 -12 -100 -8
-86 -23 -100 -50 -48 -24 47 -20 78 12 82 14 2 28 9 29 16 1 7 0 8 -3 2 -7
-14 -38 -13 -51 3 -5 6 -13 22 -16 34 -6 19 -3 22 31 26 21 2 44 4 52 5 9 1
11 -5 8 -20z m-521 -75 c10 -15 15 -16 25 -5 24 23 33 12 10 -12 -31 -33 -162
-63 -200 -46 -31 14 -21 22 56 40 28 6 60 18 70 25 23 18 23 18 39 -2z m501
-110 c18 3 28 -3 43 -27 11 -17 33 -44 50 -60 38 -37 40 -66 4 -66 -49 0 -97
37 -127 98 -31 66 -36 92 -10 67 9 -10 26 -15 40 -12z"/>
<path d="M1593 1905 c-28 -20 -38 -67 -21 -102 19 -39 74 -73 118 -73 99 0
109 136 13 176 -42 18 -83 18 -110 -1z m87 -70 c10 -12 10 -19 2 -27 -16 -16
-42 -2 -42 22 0 24 22 26 40 5z"/>
<path d="M1180 1393 c20 -11 42 -16 50 -12 8 4 27 5 41 2 15 -3 40 2 55 11 26
14 27 15 7 16 -12 0 -24 -4 -27 -9 -6 -9 -76 -7 -131 5 -30 6 -30 6 5 -13z"/>
<path d="M1950 2470 c0 -5 4 -10 9 -10 6 0 13 5 16 10 3 6 -1 10 -9 10 -9 0
-16 -4 -16 -10z"/>
<path d="M1945 2350 c3 -5 8 -10 11 -10 2 0 4 5 4 10 0 6 -5 10 -11 10 -5 0
-7 -4 -4 -10z"/>
<path d="M1970 2337 c0 -2 14 -16 32 -33 30 -28 30 -17 0 19 -13 15 -32 23
-32 14z"/>
<path d="M1854 2315 c-7 -17 18 -45 83 -96 14 -11 46 -12 41 -1 -1 4 -29 31
-60 61 -49 46 -59 51 -64 36z"/>
<path d="M2205 2191 c-3 -5 -1 -12 5 -16 12 -7 30 2 30 16 0 12 -27 12 -35 0z"/>
</g>
</svg>
